<svg width="23" height="20" viewBox="0 0 23 20" xmlns="http://www.w3.org/2000/svg" xmlns:xlink="http://www.w3.org/1999/xlink"><title>Page 1</title><defs><path id="a" d="M0 .047V16h19.355V.047H0z"/></defs><g fill="none" fill-rule="evenodd"><path d="M15.837 3.15c-.425.001-.757.272-.83.634a.796.796 0 0 0 .505.905c.117.043.24.07.36.105.68.208 1.245.592 1.609 1.203.208.35.332.75.48 1.13.127.321.406.534.739.54.33.005.66-.196.748-.515.049-.182.053-.399.007-.582-.322-1.307-1.08-2.29-2.256-2.946a3.988 3.988 0 0 0-1.362-.474" fill="#8E8E8E"/><g transform="translate(0 3.594)"><mask id="b" fill="#fff"><use xlink:href="#a"/></mask><path d="M8.325 14.367a9.564 9.564 0 0 0 3.526-.642c1.202-.468 2.259-1.143 3.036-2.205.935-1.28.869-2.887-.178-4.069-.687-.775-1.56-1.264-2.533-1.55-2.521-.746-4.961-.505-7.288.717-.942.495-1.738 1.173-2.253 2.127-.517.957-.578 1.937-.08 2.923.443.873 1.17 1.451 2.024 1.88 1.177.59 2.437.822 3.746.82M.273 8.057c.338-1.122.934-2.118 1.64-3.04 1.118-1.458 2.417-2.729 3.97-3.72.933-.595 1.91-1.09 3.03-1.226.54-.065 1.065-.02 1.515.328.544.42.656 1.016.605 1.648-.032.387-.135.767-.207 1.151-.047.247.036.345.278.29.2-.047.394-.124.586-.198.984-.379 1.99-.672 3.058-.584.364.03.744.14 1.069.308.595.306.81.867.754 1.507-.033.377-.143.751-.25 1.117-.118.411-.098.484.3.621.64.22 1.24.507 1.749.965.85.765 1.142 1.712.907 2.82-.231 1.091-.833 1.977-1.603 2.753-1.562 1.574-3.481 2.477-5.63 2.917-2.316.475-4.607.362-6.855-.387-1.461-.487-2.79-1.2-3.851-2.345-.71-.765-1.181-1.645-1.314-2.697-.066-.532 0-1.402.249-2.229" fill="#8E8E8E" mask="url(#b)"/></g><path d="M22.665 7.003c-.102.242-.234.457-.493.563a.794.794 0 0 1-1.098-.723c-.024-.646-.108-1.28-.355-1.88-.773-1.878-2.164-2.987-4.17-3.316-.275-.045-.56-.034-.835-.075-.442-.066-.71-.42-.672-.865.033-.402.37-.705.795-.707.177 0 .355 0 .53.02 2.525.265 4.388 1.517 5.57 3.763.404.765.62 1.59.694 2.451.005.05.023.1.034.15v.62z" fill="#8E8E8E"/><path d="M15.837 3.15c.45.063.92.23 1.362.474 1.176.656 1.934 1.64 2.256 2.946.046.183.042.4-.007.582-.088.32-.417.52-.748.515-.333-.006-.612-.219-.738-.54-.15-.38-.273-.78-.481-1.13-.364-.61-.928-.995-1.61-1.203-.118-.036-.242-.062-.36-.105a.796.796 0 0 1-.503-.905c.072-.362.404-.633.829-.634M7.732 16.041c-.643-.012-1.194-.152-1.679-.497-.97-.689-1.173-1.892-.487-2.864.851-1.21 2.685-1.607 3.962-.857 1.184.695 1.423 2.127.522 3.162-.625.719-1.437 1.029-2.318 1.056" fill="#8E8E8E"/></g></svg>