<svg width="26" height="18" viewBox="0 0 26 18" xmlns="http://www.w3.org/2000/svg"><title>Flag_Icon_ZH</title><g fill="none" fill-rule="evenodd"><path fill="#D0011B" d="M0 18h25.959V0H0z"/><path fill="#FFCD02" d="M5.002 6.317l1.852 1.33-.708-2.157L8 4.157H5.71L5.002 2l-.708 2.157H2L3.85 5.49l-.708 2.156zM8.75 2.08l.464.332-.178-.54.464-.333h-.572L8.75 1l-.177.54H8l.463.332-.177.54zm2 2l.464.332-.178-.54.464-.333h-.572L10.75 3l-.177.54H10l.463.332-.177.54zm0 3l.464.332-.178-.54.464-.333h-.572L10.75 6l-.177.54H10l.463.332-.177.54zm-2 2l.464.332-.178-.54.464-.333h-.572L8.75 8l-.177.54H8l.463.332-.177.54z"/></g></svg>