<svg width="21" height="20" viewBox="0 0 21 20" xmlns="http://www.w3.org/2000/svg"><title>insta</title><g transform="translate(.503)" fill="#8E8E8E" fill-rule="evenodd"><path d="M9.882 4.98c-2.745 0-5.02 2.236-5.02 5.02a5.004 5.004 0 0 0 5.02 5.02c2.785 0 5.02-2.275 5.02-5.02 0-2.745-2.275-5.02-5.02-5.02zm0 8.236A3.23 3.23 0 0 1 6.667 10a3.23 3.23 0 0 1 3.215-3.216A3.23 3.23 0 0 1 13.098 10a3.23 3.23 0 0 1-3.216 3.216z"/><ellipse cx="15.098" cy="4.863" rx="1.137" ry="1.137"/><path d="M18.04 1.922C17.02.862 15.568.314 13.921.314H5.843C2.431.314.157 2.588.157 6v8.04c0 1.685.549 3.136 1.647 4.195 1.059 1.02 2.47 1.53 4.078 1.53h8c1.687 0 3.098-.55 4.118-1.53 1.059-1.02 1.608-2.47 1.608-4.157V6c0-1.647-.55-3.059-1.569-4.078zm-.236 12.156c0 1.216-.353 2.197-1.059 2.863-.706.667-1.686 1.02-2.863 1.02h-8c-1.176 0-2.157-.353-2.862-1.02-.706-.706-1.06-1.686-1.06-2.902V6c0-1.176.354-2.157 1.06-2.863.666-.666 1.686-1.02 2.862-1.02h8.079c1.176 0 2.157.354 2.863 1.06.666.705 1.058 1.686 1.058 2.823v8.078h-.078z"/></g></svg>