<svg width="26" height="18" viewBox="0 0 26 18" xmlns="http://www.w3.org/2000/svg"><title>Flag_icon_EN</title><g fill="none" fill-rule="evenodd"><path fill="#FEFEFE" d="M.015 17.193h25.96V.015H.014z"/><path fill="#E30613" d="M.015 1.364h25.96V.015H.014zm0 2.638h25.96V2.653H.014zm0 2.638h25.96V5.292H.014zm0 2.64h25.96V7.93H.014zm0 2.637h25.96v-1.349H.014zm0 2.639h25.96v-1.35H.014zm0 2.638h25.96v-1.35H.014z"/><path fill="#30287B" d="M.015 9.278h11.682V.015H.015z"/><path fill="#FEFEFE" d="M.976 1.131l.295.212L1.16 1l.295-.213h-.366L.976.446.862.788H.5l.295.213-.113.342zm1.952 0l.295.212L3.111 1l.294-.213h-.364L2.928.446l-.113.342H2.45l.294.213-.112.342zm1.952 0l.295.212L5.063 1l.295-.213h-.364L4.88.446l-.113.342h-.364l.294.213-.112.342zm1.952 0l.295.212L7.015 1 7.31.788h-.363L6.832.446 6.72.788h-.365l.295.213-.113.342zm1.952 0l.296.212L8.967 1l.295-.213h-.365L8.784.446 8.67.788h-.364l.295.213-.112.342zm1.952 0l.296.212L10.919 1l.295-.213h-.365l-.113-.342-.113.342h-.365l.295.213-.112.342zm-8.784.933l.295.211-.112-.343.294-.212h-.365l-.112-.342-.113.342h-.365l.296.212-.113.343zm1.952 0l.295.211-.112-.343.294-.212h-.363l-.114-.342-.113.342h-.364l.295.212-.113.343zm1.952 0l.295.211-.111-.343.294-.212h-.365l-.113-.342-.112.342h-.365l.294.212-.112.343zm1.953 0l.294.211-.112-.343.295-.212H7.92l-.112-.342-.113.342H7.33l.295.212-.113.343zm1.952 0l.295.211-.113-.343.295-.212h-.365l-.112-.342-.113.342h-.364l.293.212-.112.343zm-8.785.931l.295.212-.112-.343.295-.212h-.366L.976 2.31l-.114.342H.5l.295.212-.113.343zm1.952 0l.295.212-.112-.343.294-.212h-.364l-.113-.342-.113.342H2.45l.294.212-.112.343zm1.952 0l.295.212-.112-.343.295-.212h-.364L4.88 2.31l-.113.342h-.364l.294.212-.112.343zm1.952 0l.295.212-.112-.343.294-.212h-.363l-.114-.342-.112.342h-.365l.295.212-.113.343zm1.952 0l.296.212-.113-.343.295-.212h-.365l-.113-.342-.113.342h-.364l.295.212-.112.343zm1.952 0l.296.212-.113-.343.295-.212h-.365l-.113-.342-.113.342h-.365l.295.212-.112.343zm-8.784.932l.295.212-.112-.344.294-.211h-.365l-.112-.343-.113.343h-.365l.296.211-.113.344zm1.952 0l.295.212-.112-.344.294-.211h-.363l-.114-.343-.113.343h-.364l.295.211-.113.344zm1.952 0l.295.212-.111-.344.294-.211h-.365l-.113-.343-.112.343h-.365l.294.211-.112.344zm1.953 0l.294.212-.112-.344.295-.211H7.92l-.11-.344-.113.343h-.365l.295.211-.113.344zm1.952 0l.295.212-.113-.344.295-.211h-.365L9.76 3.24l-.113.343h-.364l.293.211-.112.344zm-8.785.932l.295.211-.112-.342.295-.212h-.366l-.112-.343-.114.343H.5l.295.212-.113.342zm1.952 0l.295.211-.112-.342.294-.212h-.364l-.113-.343-.113.343H2.45l.294.212-.112.342zm1.952 0l.295.211-.112-.342.295-.212h-.364l-.114-.343-.113.343h-.364l.294.212-.112.342zm1.952 0l.295.211-.112-.342.294-.212h-.363l-.114-.343-.112.343h-.365l.295.212-.113.342zm1.952 0l.296.211-.113-.342.295-.212h-.365l-.113-.343-.113.343h-.364l.295.212-.112.342zm1.952 0l.296.211-.113-.342.295-.212h-.365l-.113-.343-.113.343h-.365l.295.212-.112.342zm-8.784.931l.295.212-.112-.343.294-.212h-.365l-.112-.343-.113.343h-.365l.296.212-.113.343zm1.952 0l.295.212-.112-.343.294-.212h-.363l-.114-.343-.113.343h-.364l.295.212-.113.343zm1.952 0l.295.212-.111-.343.294-.212h-.365l-.113-.343-.112.343h-.365l.294.212-.112.343zm1.953 0l.294.212-.112-.343.295-.212H7.92l-.112-.343-.113.343H7.33l.295.212-.113.343zm1.952 0l.295.212-.113-.343.295-.212h-.365l-.112-.343-.113.343h-.364l.293.212-.112.343zm-8.785.933l.295.211-.112-.342.295-.213h-.366l-.112-.343-.114.343H.5l.295.213-.113.342zm1.952 0l.295.211-.112-.342.294-.213h-.364l-.113-.343-.113.343H2.45l.294.213-.112.342zm1.952 0l.295.211-.112-.342.295-.213h-.364l-.114-.343-.113.343h-.364l.294.213-.112.342zm1.952 0l.295.211-.112-.342.294-.213h-.363l-.114-.343-.112.343h-.365l.295.213-.113.342zm1.952 0l.296.211-.113-.342.295-.213h-.365l-.113-.343-.113.343h-.364l.295.213-.112.342zm1.952 0l.296.211-.113-.342.295-.213h-.365l-.113-.343-.113.343h-.365l.295.213-.112.342zm-8.784.932l.295.212-.112-.343.294-.213h-.365l-.112-.343-.113.343h-.365l.296.213-.113.343zm1.952 0l.295.212-.112-.343.294-.213h-.363l-.114-.343-.113.343h-.364l.295.213-.113.343zm1.952 0l.295.212-.111-.343.294-.213h-.365l-.113-.343-.112.343h-.365l.294.213-.112.343zm1.953 0l.294.212-.112-.343.295-.213H7.92l-.112-.343-.113.343H7.33l.295.213-.113.343zm1.952 0l.295.212-.113-.343.295-.213h-.365l-.112-.343-.113.343h-.364l.293.213-.112.343zm-8.785.931l.295.212-.112-.344.295-.21h-.366L.976 7.9l-.114.342H.5l.295.211-.113.344zm1.952 0l.295.212-.112-.344.294-.21h-.364L2.928 7.9l-.113.342H2.45l.294.211-.112.344zm1.952 0l.295.212-.112-.344.295-.21h-.364L4.88 7.9l-.113.342h-.364l.294.211-.112.344zm1.952 0l.295.212-.112-.344.294-.21h-.363L6.832 7.9l-.112.342h-.365l.295.211-.113.344zm1.952 0l.296.212-.113-.344.295-.21h-.365L8.784 7.9l-.113.342h-.364l.295.211-.112.344zm1.952 0l.296.212-.113-.344.295-.21h-.365l-.113-.343-.113.342h-.365l.295.211-.112.344z"/></g></svg>