<svg width="26" height="18" viewBox="0 0 26 18" xmlns="http://www.w3.org/2000/svg"><title>Shape</title><path d="M25.378 2.896c-.316-1.374-1.44-2.387-2.791-2.538C19.384 0 16.143-.002 12.917 0 9.69-.002 6.446 0 3.244.358 1.894.508.771 1.522.455 2.896.005 4.85 0 6.986 0 9c0 2.014 0 4.149.45 6.104.316 1.373 1.438 2.387 2.79 2.538 3.203.358 6.444.36 9.671.358 3.228.002 6.469 0 9.67-.358 1.352-.151 2.476-1.164 2.792-2.538.45-1.956.452-4.09.452-6.104 0-2.014.003-4.149-.447-6.104zM9.58 13.008v-8.54c2.737 1.428 5.455 2.847 8.21 4.283l-8.21 4.257z" fill="#8E8E8E" fill-rule="evenodd"/></svg>